<svg xmlns="http://www.w3.org/2000/svg" viewBox="0 0 900 600" width="900" height="600" font-family="Segoe UI, Helvetica, Arial, sans-serif">
<rect width="900" height="600" fill="#ffffff"/>
<text x="20" y="32" font-size="19" font-weight="700" fill="#111827">Same system, three implementations: ms per frame</text>
<text x="20" y="52" font-size="12.5" fill="#4b5563">log scale · CPU-only: plain C++ on one laptop core, scaled to a Cortex-A53 (PassMark ×15.9) · GPU: measured on an RTX 4060 Laptop</text>
<rect x="20" y="64" width="14" height="14" rx="3" fill="#9ca3af"/><text x="40" y="76" font-size="12" fill="#111827">CPU-only, one KV260 A53 core (projected)</text>
<rect x="310" y="64" width="14" height="14" rx="3" fill="#2563eb"/><text x="330" y="76" font-size="12" fill="#111827">native GPU, RTX 4060 Laptop (measured)</text>
<rect x="600" y="64" width="14" height="14" rx="3" fill="#059669"/><text x="620" y="76" font-size="12" fill="#111827">FPGA design on the KV260 (published / estimated)</text>
<path d="M220.0,92 V560" stroke="#e5e7eb"/>
<text x="220.0" y="576" text-anchor="middle" font-size="11" fill="#6b7280">0.1</text>
<path d="M292.0,92 V560" stroke="#e5e7eb"/>
<text x="292.0" y="576" text-anchor="middle" font-size="11" fill="#6b7280">1</text>
<path d="M364.0,92 V560" stroke="#e5e7eb"/>
<text x="364.0" y="576" text-anchor="middle" font-size="11" fill="#6b7280">10</text>
<path d="M436.0,92 V560" stroke="#e5e7eb"/>
<text x="436.0" y="576" text-anchor="middle" font-size="11" fill="#6b7280">100</text>
<path d="M508.0,92 V560" stroke="#e5e7eb"/>
<text x="508.0" y="576" text-anchor="middle" font-size="11" fill="#6b7280">1 s</text>
<path d="M580.0,92 V560" stroke="#e5e7eb"/>
<text x="580.0" y="576" text-anchor="middle" font-size="11" fill="#6b7280">10 s</text>
<path d="M652.0,92 V560" stroke="#e5e7eb"/>
<text x="652.0" y="576" text-anchor="middle" font-size="11" fill="#6b7280">100 s</text>
<path d="M401.6,98 V560" stroke="#dc2626" stroke-dasharray="5 3"/>
<text x="405.6" y="94" font-size="10.5" fill="#dc2626">33 ms = 30 FPS</text>
<text x="210.0" y="136" text-anchor="end" font-size="12.5" fill="#111827">Preprocess (4K in)</text>
<rect x="220.0" y="106" width="279.6" height="16" rx="3" fill="#9ca3af"/>
<text x="505.6" y="118.5" font-size="11" font-weight="700" fill="#1f2937">765 ms</text>
<rect x="220.0" y="127" width="141.3" height="16" rx="3" fill="#2563eb"/>
<text x="367.3" y="139.5" font-size="11" font-weight="700" fill="#1f2937">9.2 ms</text>
<rect x="220.0" y="148" width="132.8" height="16" rx="3" fill="#059669"/>
<text x="358.8" y="160.5" font-size="11" font-weight="700" fill="#1f2937">≈ 7 (PL, est.)</text>
<text x="210.0" y="214" text-anchor="end" font-size="12.5" fill="#111827">Dense LK flow</text>
<rect x="220.0" y="184" width="389.5" height="16" rx="3" fill="#9ca3af"/>
<text x="615.5" y="196.5" font-size="11" font-weight="700" fill="#1f2937">25.7 s</text>
<rect x="220.0" y="205" width="229.5" height="16" rx="3" fill="#2563eb"/>
<text x="455.5" y="217.5" font-size="11" font-weight="700" fill="#1f2937">154 ms</text>
<rect x="220.0" y="226" width="137.0" height="16" rx="3" fill="#059669"/>
<text x="363.0" y="238.5" font-size="11" font-weight="700" fill="#1f2937">≈ 8 (PL, AMD bench)</text>
<text x="210.0" y="292" text-anchor="end" font-size="12.5" fill="#111827">YOLOv9t detection</text>
<rect x="220.0" y="262" width="308.6" height="16" rx="3" fill="#9ca3af"/>
<text x="534.6" y="274.5" font-size="11" font-weight="700" fill="#1f2937">1.9 s</text>
<rect x="220.0" y="283" width="209.9" height="16" rx="3" fill="#2563eb"/>
<text x="435.9" y="295.5" font-size="11" font-weight="700" fill="#1f2937">82 ms</text>
<rect x="220.0" y="304" width="165.7" height="16" rx="3" fill="#059669"/>
<text x="391.7" y="316.5" font-size="11" font-weight="700" fill="#1f2937">10–30 (DPU, est.)</text>
<text x="210.0" y="370" text-anchor="end" font-size="12.5" fill="#111827">Horn sums</text>
<rect x="220.0" y="340" width="83.3" height="16" rx="3" fill="#9ca3af"/>
<text x="309.3" y="352.5" font-size="11" font-weight="700" fill="#1f2937">1.4 ms</text>
<rect x="220.0" y="361" width="2.0" height="16" rx="3" fill="#2563eb"/>
<text x="222.7" y="373.5" font-size="11" font-weight="700" fill="#1f2937">0.09 ms</text>
<rect x="220.0" y="382" width="59.0" height="16" rx="3" fill="#059669"/>
<text x="285.0" y="394.5" font-size="11" font-weight="700" fill="#1f2937">0.66 (HLS engine)</text>
<text x="210.0" y="448" text-anchor="end" font-size="12.5" fill="#111827">Per-object stages</text>
<rect x="220.0" y="418" width="221.6" height="16" rx="3" fill="#9ca3af"/>
<text x="447.6" y="430.5" font-size="11" font-weight="700" fill="#1f2937">120 ms</text>
<rect x="220.0" y="439" width="135.0" height="16" rx="3" fill="#2563eb"/>
<text x="361.0" y="451.5" font-size="11" font-weight="700" fill="#1f2937">7.5 ms</text>
<rect x="220.0" y="460" width="221.6" height="16" rx="3" fill="#059669"/>
<text x="447.6" y="472.5" font-size="11" font-weight="700" fill="#1f2937">≈ 120 (Arm, 1 core)</text>
<text x="210.0" y="526" text-anchor="end" font-size="12.5" fill="#111827" font-weight="700">Frame time</text>
<rect x="220.0" y="496" width="392.8" height="16" rx="3" fill="#9ca3af"/>
<text x="618.8" y="508.5" font-size="11" font-weight="700" fill="#1f2937">28.5 s</text>
<rect x="220.0" y="517" width="244.1" height="16" rx="3" fill="#2563eb"/>
<text x="470.1" y="529.5" font-size="11" font-weight="700" fill="#1f2937">245 ms</text>
<rect x="220.0" y="538" width="221.6" height="16" rx="3" fill="#059669"/>
<text x="447.6" y="550.5" font-size="11" font-weight="700" fill="#1f2937">≈ 120 (Arm-bound)</text>
</svg>
