<svg xmlns="http://www.w3.org/2000/svg" viewBox="0 0 900 640" width="900" height="640" font-family="Segoe UI, Helvetica, Arial, sans-serif">
  <defs>
    <marker id="a" viewBox="0 0 10 10" refX="9" refY="5" markerWidth="7" markerHeight="7" orient="auto-start-reverse">
      <path d="M0,0 L10,5 L0,10 z" fill="#4b5563"/>
    </marker>
  </defs>
  <rect width="900" height="640" fill="#ffffff"/>

  <text x="450" y="32" text-anchor="middle" font-size="19" font-weight="700" fill="#111827">KV260 hardware partition</text>
  <text x="450" y="53" text-anchor="middle" font-size="12.5" fill="#4b5563">every-pixel work runs in the FPGA logic and the DPU · per-object maths runs on the Arm cores · they exchange data through shared DDR</text>

  <!-- camera / display -->
  <rect x="16" y="112" width="128" height="56" rx="8" fill="#fef3c7" stroke="#d97706" stroke-width="1.5"/>
  <text x="80" y="135" text-anchor="middle" font-size="14" font-weight="700" fill="#92400e">Camera</text>
  <text x="80" y="155" text-anchor="middle" font-size="11.5" fill="#92400e">USB / file · 30 FPS</text>
  <rect x="16" y="540" width="128" height="56" rx="8" fill="#fef3c7" stroke="#d97706" stroke-width="1.5"/>
  <text x="80" y="563" text-anchor="middle" font-size="14" font-weight="700" fill="#92400e">Display</text>
  <text x="80" y="583" text-anchor="middle" font-size="11.5" fill="#92400e">HDMI · DP · MP4</text>

  <!-- board -->
  <rect x="160" y="72" width="726" height="552" rx="14" fill="#fafafa" stroke="#374151" stroke-width="1.5"/>
  <text x="176" y="94" font-size="13.5" font-weight="700" fill="#111827">AMD Kria KV260 · Zynq UltraScale+ ZU5EV · 4 GB DDR4</text>

  <!-- PS -->
  <rect x="174" y="106" width="252" height="504" rx="10" fill="#eff6ff" stroke="#2563eb" stroke-width="1.5"/>
  <text x="300" y="128" text-anchor="middle" font-size="13.5" font-weight="700" fill="#1e40af">Processing System (PS)</text>
  <text x="300" y="145" text-anchor="middle" font-size="11.5" fill="#1e40af">4× Arm Cortex-A53 · C++17 host app</text>

  <rect x="188" y="158" width="224" height="54" rx="7" fill="#ffffff" stroke="#2563eb"/>
  <text x="300" y="180" text-anchor="middle" font-size="13" font-weight="700" fill="#1e3a8a">T1 · Capture</text>
  <text x="300" y="199" text-anchor="middle" font-size="11.5" fill="#374151">decode · timestamp · drop oldest</text>

  <rect x="188" y="224" width="224" height="54" rx="7" fill="#ffffff" stroke="#2563eb"/>
  <text x="300" y="246" text-anchor="middle" font-size="13" font-weight="700" fill="#1e3a8a">T2 · Accelerator runner</text>
  <text x="300" y="265" text-anchor="middle" font-size="11.5" fill="#374151">VART → DPU · XRT → PL kernels</text>

  <rect x="188" y="290" width="224" height="238" rx="7" fill="#ffffff" stroke="#2563eb"/>
  <text x="300" y="312" text-anchor="middle" font-size="13" font-weight="700" fill="#1e3a8a">T3 · Perception (per object)</text>
  <g font-size="11.5" fill="#374151">
    <text x="200" y="338">• Tracker: Kalman + Hungarian</text>
    <text x="200" y="360">• Ego-rotation: E vs H, FOE</text>
    <text x="200" y="382">• TTC: looming · scale · divergence</text>
    <text x="200" y="404">• Horn: solve 3×3 from PL sums</text>
    <text x="200" y="426">• Fusion: EKF on η = 1/TTC</text>
    <text x="200" y="448">• Course check · κ oncoming test</text>
    <text x="200" y="470">• Lead selection · warning FSM</text>
    <text x="200" y="492">• up to 16 tracks per frame</text>
    <text x="200" y="514" fill="#6b7280">PC: 11.2 ms/frame (measured)</text>
  </g>

  <rect x="188" y="540" width="224" height="56" rx="7" fill="#ffffff" stroke="#2563eb"/>
  <text x="300" y="563" text-anchor="middle" font-size="13" font-weight="700" fill="#1e3a8a">T4 · Render</text>
  <text x="300" y="582" text-anchor="middle" font-size="11.5" fill="#374151">boxes · TTC · warning banner</text>

  <!-- DDR -->
  <rect x="440" y="106" width="150" height="504" rx="10" fill="#f3f4f6" stroke="#6b7280" stroke-width="1.5"/>
  <text x="515" y="128" text-anchor="middle" font-size="13.5" font-weight="700" fill="#374151">DDR4 (shared)</text>
  <text x="515" y="145" text-anchor="middle" font-size="11.5" fill="#4b5563">zero-copy XRT buffers</text>
  <g font-size="12" text-anchor="middle">
    <rect x="452" y="162" width="126" height="46" rx="6" fill="#ffffff" stroke="#9ca3af"/>
    <text x="515" y="181" font-weight="700" fill="#111827">BGR frame</text>
    <text x="515" y="198" font-size="11" fill="#4b5563">from capture</text>
    <rect x="452" y="222" width="126" height="46" rx="6" fill="#ffffff" stroke="#9ca3af"/>
    <text x="515" y="241" font-weight="700" fill="#111827">RGB tensor</text>
    <text x="515" y="258" font-size="11" fill="#4b5563">512×384×3 INT8</text>
    <rect x="452" y="282" width="126" height="46" rx="6" fill="#ffffff" stroke="#9ca3af"/>
    <text x="515" y="301" font-weight="700" fill="#111827">Gray ring</text>
    <text x="515" y="318" font-size="11" fill="#4b5563">9 frames + pyramid</text>
    <rect x="452" y="342" width="126" height="46" rx="6" fill="#ffffff" stroke="#9ca3af"/>
    <text x="515" y="361" font-weight="700" fill="#111827">Detections</text>
    <text x="515" y="378" font-size="11" fill="#4b5563">boxes · classes</text>
    <rect x="452" y="402" width="126" height="46" rx="6" fill="#ffffff" stroke="#9ca3af"/>
    <text x="515" y="421" font-weight="700" fill="#111827">Flow field</text>
    <text x="515" y="438" font-size="11" fill="#4b5563">u, v per pixel</text>
    <rect x="452" y="462" width="126" height="46" rx="6" fill="#ffffff" stroke="#9ca3af"/>
    <text x="515" y="481" font-weight="700" fill="#111827">Per-box sums</text>
    <text x="515" y="498" font-size="11" fill="#4b5563">16 × 23 × int64</text>
  </g>
  <text x="515" y="545" text-anchor="middle" font-size="11" fill="#6b7280">frames N, N+1, N+2</text>
  <text x="515" y="561" text-anchor="middle" font-size="11" fill="#6b7280">in flight at once</text>

  <!-- PL -->
  <rect x="650" y="106" width="222" height="504" rx="10" fill="#ecfdf5" stroke="#059669" stroke-width="1.5"/>
  <text x="761" y="128" text-anchor="middle" font-size="13.5" font-weight="700" fill="#065f46">Programmable Logic (PL)</text>
  <text x="761" y="145" text-anchor="middle" font-size="11.5" fill="#065f46">Vitis Vision · Vitis HLS · DPU</text>

  <rect x="662" y="160" width="198" height="70" rx="7" fill="#ffffff" stroke="#059669"/>
  <text x="761" y="182" text-anchor="middle" font-size="13" font-weight="700" fill="#065f46">Preprocess</text>
  <text x="761" y="200" text-anchor="middle" font-size="11.5" fill="#374151">resize to 512×384</text>
  <text x="761" y="217" text-anchor="middle" font-size="11.5" fill="#374151">RGB tensor · gray · pyramid</text>

  <rect x="662" y="244" width="198" height="88" rx="7" fill="#f5f3ff" stroke="#7c3aed"/>
  <text x="761" y="266" text-anchor="middle" font-size="13" font-weight="700" fill="#5b21b6">DPU B4096</text>
  <text x="761" y="284" text-anchor="middle" font-size="11.5" fill="#374151">YOLOv9t-Hardswish, INT8</text>
  <text x="761" y="301" text-anchor="middle" font-size="11.5" fill="#374151">one subgraph · 0.317 mAP</text>
  <text x="761" y="318" text-anchor="middle" font-size="11.5" fill="#374151">decode + NMS on Arm</text>

  <rect x="662" y="346" width="198" height="70" rx="7" fill="#ffffff" stroke="#059669"/>
  <text x="761" y="368" text-anchor="middle" font-size="13" font-weight="700" fill="#065f46">Dense pyramidal LK</text>
  <text x="761" y="386" text-anchor="middle" font-size="11.5" fill="#374151">Vitis Vision · 512×384</text>
  <text x="761" y="403" text-anchor="middle" font-size="11.5" fill="#374151">gray t−1, t → u, v</text>

  <rect x="662" y="430" width="198" height="108" rx="7" fill="#ffffff" stroke="#059669" stroke-width="2"/>
  <text x="761" y="452" text-anchor="middle" font-size="13" font-weight="700" fill="#065f46">Horn TTC engine</text>
  <text x="761" y="470" text-anchor="middle" font-size="11.5" fill="#374151">custom HLS · one pass · II = 1</text>
  <text x="761" y="487" text-anchor="middle" font-size="11.5" fill="#374151">Sobel of frame sum, G = xEx + yEy</text>
  <text x="761" y="504" text-anchor="middle" font-size="11.5" fill="#374151">23 int64 sums × 16 boxes</text>
  <text x="761" y="524" text-anchor="middle" font-size="11.5" font-weight="700" fill="#047857">bit-exact in C-sim ✓</text>

  <text x="761" y="566" text-anchor="middle" font-size="11" fill="#6b7280">synthesis and board run:</text>
  <text x="761" y="582" text-anchor="middle" font-size="11" fill="#6b7280">pending (needs device data / board)</text>

  <!-- arrows: IO -->
  <g stroke="#4b5563" stroke-width="1.4" fill="none" marker-end="url(#a)">
    <path d="M144,140 C166,140 168,180 186,183"/>
    <path d="M188,568 L146,568"/>
    <!-- PS <-> DDR -->
    <path d="M412,185 L450,185"/>
    <path d="M452,308 L414,318"/>
    <path d="M452,365 L414,365"/>
    <path d="M452,425 L414,420"/>
    <path d="M452,485 L414,408"/>
    <!-- DDR <-> PL -->
    <path d="M578,180 L660,180"/>
    <path d="M662,206 L580,240"/>
    <path d="M662,218 L580,296"/>
    <path d="M578,254 L660,282"/>
    <path d="M662,310 L580,362"/>
    <path d="M578,312 L660,372"/>
    <path d="M662,398 L580,422"/>
    <path d="M578,320 L660,454"/>
    <path d="M578,436 L660,478"/>
    <path d="M662,512 L580,488"/>
  </g>
</svg>
